<?xml version="1.0" encoding="utf-8"?>
<!-- Generator: Adobe Illustrator 24.0.2, SVG Export Plug-In . SVG Version: 6.00 Build 0)  -->
<svg version="1.1" id="Capa_1" xmlns="http://www.w3.org/2000/svg" xmlns:xlink="http://www.w3.org/1999/xlink" x="0px" y="0px"
	 viewBox="0 0 100 100" style="enable-background:new 0 0 100 100;" xml:space="preserve">
<style type="text/css">
	.st0{fill:#F1F1F1;}
	.st1{fill:#FE346E;}
	.st2{clip-path:url(#SVGID_2_);fill:#FE346E;}
	.st3{clip-path:url(#SVGID_4_);fill:#FE346E;}
	.st4{clip-path:url(#SVGID_6_);fill:#FE346E;}
	.st5{clip-path:url(#SVGID_8_);fill:#FE346E;}
	.st6{clip-path:url(#SVGID_10_);fill:#FE346E;}
	.st7{clip-path:url(#SVGID_12_);fill:#FE346E;}
	.st8{clip-path:url(#SVGID_14_);fill:#FE346E;}
	.st9{clip-path:url(#SVGID_16_);fill:#FE346E;}
	.st10{clip-path:url(#SVGID_18_);fill:#FE346E;}
	.st11{clip-path:url(#SVGID_20_);fill:#FE346E;}
	.st12{clip-path:url(#SVGID_22_);fill:#FE346E;}
	.st13{clip-path:url(#SVGID_24_);fill:#FE346E;}
	.st14{clip-path:url(#SVGID_26_);fill:#FE346E;}
	.st15{clip-path:url(#SVGID_28_);fill:#FE346E;}
	.st16{clip-path:url(#SVGID_30_);fill:#FE346E;}
	.st17{clip-path:url(#SVGID_32_);fill:#FE346E;}
	.st18{clip-path:url(#SVGID_34_);fill:#FE346E;}
	.st19{clip-path:url(#SVGID_36_);fill:#FE346E;}
	.st20{clip-path:url(#SVGID_38_);fill:#FE346E;}
	.st21{clip-path:url(#SVGID_40_);fill:#FE346E;}
	.st22{clip-path:url(#SVGID_42_);fill:#FE346E;}
	.st23{clip-path:url(#SVGID_44_);fill:#FE346E;}
	.st24{clip-path:url(#SVGID_46_);fill:#FE346E;}
	.st25{clip-path:url(#SVGID_48_);fill:#FE346E;}
	.st26{clip-path:url(#SVGID_50_);fill:#FE346E;}
	.st27{clip-path:url(#SVGID_52_);fill:#FE346E;}
	.st28{clip-path:url(#SVGID_54_);fill:#FE346E;}
	.st29{clip-path:url(#SVGID_56_);fill:#FE346E;}
	.st30{clip-path:url(#SVGID_58_);fill:#FE346E;}
	.st31{clip-path:url(#SVGID_60_);fill:#FE346E;}
	.st32{fill:url(#);}
	.st33{clip-path:url(#SVGID_62_);fill:#FE346E;}
	.st34{clip-path:url(#SVGID_64_);fill:#FE346E;}
	.st35{clip-path:url(#SVGID_66_);fill:#FE346E;}
	.st36{clip-path:url(#SVGID_68_);fill:#FE346E;}
	.st37{clip-path:url(#SVGID_70_);fill:#FE346E;}
	.st38{clip-path:url(#SVGID_72_);fill:#FE346E;}
	.st39{clip-path:url(#SVGID_74_);fill:#FE346E;}
	.st40{clip-path:url(#SVGID_76_);fill:#FE346E;}
	.st41{clip-path:url(#SVGID_78_);fill:#FE346E;}
	.st42{clip-path:url(#SVGID_80_);fill:#FE346E;}
	.st43{clip-path:url(#SVGID_82_);fill:#FE346E;}
	.st44{clip-path:url(#SVGID_84_);fill:#FE346E;}
	.st45{clip-path:url(#SVGID_86_);fill:#FE346E;}
	.st46{clip-path:url(#SVGID_88_);fill:#FE346E;}
	.st47{clip-path:url(#SVGID_90_);fill:#FE346E;}
	.st48{fill:#FFFFFF;}
</style>
<g>
	<path class="st1" d="M12.57,62.21c-1.89-0.52-3.82-1.09-3.82-2.94c0-1.61,1.29-2.42,3.02-2.42c0.79-0.03,1.59,0.09,2.33,0.36
		c0.62,0.14,1.03,0.74,0.92,1.37v1.69L18.65,60v-4.83c-2.08-1.03-4.36-1.58-6.68-1.61c-4.23,0-7.77,2.21-7.77,6.4
		c0,4.47,3.26,5.47,6.24,6.24c2.17,0.56,3.94,0.93,3.94,2.86c0,1.69-1.17,2.46-3.18,2.46c-0.9,0.02-1.8-0.12-2.66-0.4
		c-0.62-0.14-1.03-0.74-0.93-1.37v-1.93L4,68.09v5.59c1.69,0.85,4.87,1.25,7.41,1.25c4.31,0,7.77-2.25,7.77-6.44
		C19.17,64.1,15.71,63.1,12.57,62.21"/>
	<path class="st1" d="M39.22,71.11c-0.76-0.08-1-0.28-1-1.17V54.16h-7.08v3.3l1.29,0.08c0.76,0.04,1,0.32,1,1.21v8.49
		c0,2.09-1.49,3.98-4.31,3.98c-2.57,0-2.98-1.85-2.98-4.31V54.16h-7.08v3.3l1.29,0.08c0.68,0.04,1,0.28,1,1.13v9.3
		c0,4.75,2.21,6.96,6.24,6.96c2.55,0.08,4.99-1.09,6.52-3.14v2.62h6.52v-3.18L39.22,71.11z"/>
	<path class="st1" d="M56.28,69.42c-1.46,1.11-3.23,1.73-5.07,1.77c-3.42,0-4.79-2.13-4.95-4.75c4.75-0.04,11.47-1.09,11.47-7.28
		c0-3.58-2.61-5.6-6.56-5.6c-6.6,0-9.94,5.23-9.94,11.19c0,6,2.66,10.18,9.5,10.18c2.54,0.04,5.03-0.75,7.08-2.25L56.28,69.42z
		 M50.89,56.98c1.45,0,2.41,0.76,2.41,2.25c0,3.1-4.23,3.79-7.2,3.82C46.22,60.08,47.67,56.98,50.89,56.98"/>
	<path class="st1" d="M73.74,69.42c-1.46,1.11-3.23,1.73-5.07,1.77c-3.42,0-4.79-2.13-4.95-4.75c4.75-0.04,11.47-1.09,11.47-7.28
		c0-3.58-2.62-5.6-6.56-5.6c-6.6,0-9.94,5.23-9.94,11.19c0,6,2.66,10.18,9.5,10.18c2.54,0.04,5.03-0.75,7.08-2.25L73.74,69.42z
		 M68.35,56.98c1.45,0,2.41,0.76,2.41,2.25c0,3.1-4.23,3.79-7.2,3.83C63.68,60.08,65.13,56.98,68.35,56.98z"/>
	<path class="st1" d="M88.71,53.56c-3.42,0-5.63,1.85-6.36,3.22v-2.61h-6.8v3.26l1.69,0.12c0.77,0,1.01,0.32,1.01,1.21v19.48
		c0,1.01-0.4,1.25-1.17,1.33l-1.33,0.12v3.06h10.38v-3.18l-3.26-0.16v-5.55c1.31,0.75,2.8,1.15,4.31,1.17
		c5.31,0,8.81-3.82,8.81-11.23C96,56.58,93.18,53.56,88.71,53.56 M86.42,71.19c-1.25-0.01-2.47-0.36-3.54-1v-9.26
		c0-1.85,1.77-3.46,4.07-3.46c2.13,0,4.06,1.37,4.06,6.72C91.01,67.69,89.84,71.19,86.42,71.19z"/>
	<path class="st1" d="M38.44,18.66l3.12,11.29c-1.86,0.71-3.02,2.58-2.84,4.57l11.23-2.85c0,0-1.09-2.7-4.84-2.58l-3.55-11.83
		L38.44,18.66z"/>
	<polygon class="st1" points="38.44,35.65 38.44,38.55 51.83,35.25 50.63,32.75 	"/>
	<path class="st1" d="M38.44,39.52c0,0,0.97,6.86-2.15,10.91c0,0,10.33,0.71,15.81-1.87l-2.15-5.27l5.27,4.09
		c0,0,4.41-0.97,7.31-4.3c0,0-6.67,1.18-10.43-6.77L38.44,39.52z"/>
	<path class="st1" d="M62.26,35.65c1.13,0,2.04,0.92,2.04,2.04c0,1.13-0.92,2.04-2.04,2.04c-1.13,0-2.04-0.92-2.04-2.04
		C60.22,36.57,61.13,35.65,62.26,35.65"/>
	<path class="st1" d="M64.5,30.76c0.75,0,1.36,0.61,1.36,1.36c0,0.75-0.61,1.36-1.36,1.36c-0.75,0-1.36-0.61-1.36-1.36
		C63.14,31.37,63.75,30.76,64.5,30.76"/>
	<path class="st1" d="M57.8,29.4c1.85,0,3.35,1.5,3.35,3.35c0,1.85-1.5,3.35-3.35,3.35c-1.85,0-3.35-1.5-3.35-3.35
		C54.45,30.9,55.95,29.4,57.8,29.4"/>
	<path class="st1" d="M12.57,62.21c-1.89-0.52-3.82-1.09-3.82-2.94c0-1.61,1.29-2.42,3.02-2.42c0.79-0.03,1.59,0.09,2.33,0.36
		c0.62,0.14,1.03,0.74,0.92,1.37v1.69L18.65,60v-4.83c-2.08-1.03-4.36-1.58-6.68-1.61c-4.23,0-7.77,2.21-7.77,6.4
		c0,4.47,3.26,5.47,6.24,6.24c2.17,0.56,3.94,0.93,3.94,2.86c0,1.69-1.17,2.46-3.18,2.46c-0.9,0.02-1.8-0.12-2.66-0.4
		c-0.62-0.14-1.03-0.74-0.93-1.37v-1.93L4,68.09v5.59c1.69,0.85,4.87,1.25,7.41,1.25c4.31,0,7.77-2.25,7.77-6.44
		C19.17,64.1,15.71,63.1,12.57,62.21"/>
	<path class="st1" d="M39.22,71.11c-0.76-0.08-1-0.28-1-1.17V54.16h-7.08v3.3l1.29,0.08c0.76,0.04,1,0.32,1,1.21v8.49
		c0,2.09-1.49,3.98-4.31,3.98c-2.57,0-2.98-1.85-2.98-4.31V54.16h-7.08v3.3l1.29,0.08c0.68,0.04,1,0.28,1,1.13v9.3
		c0,4.75,2.21,6.96,6.24,6.96c2.55,0.08,4.99-1.09,6.52-3.14v2.62h6.52v-3.18L39.22,71.11z"/>
	<path class="st1" d="M56.28,69.42c-1.46,1.11-3.23,1.73-5.07,1.77c-3.42,0-4.79-2.13-4.95-4.75c4.75-0.04,11.47-1.09,11.47-7.28
		c0-3.58-2.61-5.6-6.56-5.6c-6.6,0-9.94,5.23-9.94,11.19c0,6,2.66,10.18,9.5,10.18c2.54,0.04,5.03-0.75,7.08-2.25L56.28,69.42z
		 M50.89,56.98c1.45,0,2.41,0.76,2.41,2.25c0,3.1-4.23,3.79-7.2,3.82C46.22,60.08,47.67,56.98,50.89,56.98"/>
	<path class="st1" d="M73.74,69.42c-1.46,1.11-3.23,1.73-5.07,1.77c-3.42,0-4.79-2.13-4.95-4.75c4.75-0.04,11.47-1.09,11.47-7.28
		c0-3.58-2.62-5.6-6.56-5.6c-6.6,0-9.94,5.23-9.94,11.19c0,6,2.66,10.18,9.5,10.18c2.54,0.04,5.03-0.75,7.08-2.25L73.74,69.42z
		 M68.35,56.98c1.45,0,2.41,0.76,2.41,2.25c0,3.1-4.23,3.79-7.2,3.83C63.68,60.08,65.13,56.98,68.35,56.98z"/>
	<path class="st1" d="M88.71,53.56c-3.42,0-5.63,1.85-6.36,3.22v-2.61h-6.8v3.26l1.69,0.12c0.77,0,1.01,0.32,1.01,1.21v19.48
		c0,1.01-0.4,1.25-1.17,1.33l-1.33,0.12v3.06h10.38v-3.18l-3.26-0.16v-5.55c1.31,0.75,2.8,1.15,4.31,1.17
		c5.31,0,8.81-3.82,8.81-11.23C96,56.58,93.18,53.56,88.71,53.56 M86.42,71.19c-1.25-0.01-2.47-0.36-3.54-1v-9.26
		c0-1.85,1.77-3.46,4.07-3.46c2.13,0,4.06,1.37,4.06,6.72C91.01,67.69,89.84,71.19,86.42,71.19z"/>
	<path class="st1" d="M38.44,18.66l3.12,11.29c-1.86,0.71-3.02,2.58-2.84,4.57l11.23-2.85c0,0-1.09-2.7-4.84-2.58l-3.55-11.83
		L38.44,18.66z"/>
	<polygon class="st1" points="38.44,35.65 38.44,38.55 51.83,35.25 50.63,32.75 	"/>
	<path class="st1" d="M38.44,39.52c0,0,0.97,6.86-2.15,10.91c0,0,10.33,0.71,15.81-1.87l-2.15-5.27l5.27,4.09
		c0,0,4.41-0.97,7.31-4.3c0,0-6.67,1.18-10.43-6.77L38.44,39.52z"/>
	<path class="st1" d="M62.26,35.65c1.13,0,2.04,0.92,2.04,2.04c0,1.13-0.92,2.04-2.04,2.04c-1.13,0-2.04-0.92-2.04-2.04
		C60.22,36.57,61.13,35.65,62.26,35.65"/>
	<path class="st1" d="M64.5,30.76c0.75,0,1.36,0.61,1.36,1.36c0,0.75-0.61,1.36-1.36,1.36c-0.75,0-1.36-0.61-1.36-1.36
		C63.14,31.37,63.75,30.76,64.5,30.76"/>
	<path class="st1" d="M57.8,29.4c1.85,0,3.35,1.5,3.35,3.35c0,1.85-1.5,3.35-3.35,3.35c-1.85,0-3.35-1.5-3.35-3.35
		C54.45,30.9,55.95,29.4,57.8,29.4"/>
</g>
</svg>
